<svg width="172" height="88" viewBox="0 0 172 88" fill="none" xmlns="http://www.w3.org/2000/svg">
<path fill-rule="evenodd" clip-rule="evenodd" d="M0.171249 0.0378418H40.7516V13.5646H13.698V74.4352H23.8431V87.962H0.171249V0.0378418Z" fill="#F8F8FF"/>
<path fill-rule="evenodd" clip-rule="evenodd" d="M167.565 87.9618V49.0723H170.947V87.9618H167.565Z" fill="#F8F8FF"/>
<path d="M119.326 87.2855V48.9844H133.576L146.785 69.4369H146.974V48.9844H160.183V87.2855H146.548L132.771 66.3122H132.487V87.2855H119.326Z" fill="#F8F8FF"/>
<path d="M95.302 48.2271C109.695 48.2271 115.944 55.66 115.944 68.1114C115.944 80.5155 110.215 87.9485 95.302 87.9485C80.4361 87.9485 74.6601 80.5155 74.6601 68.1114C74.6601 55.66 80.8622 48.2271 95.302 48.2271ZM95.302 78.1483C100.983 78.1483 102.546 74.1714 102.546 68.2061V67.9694C102.546 61.9567 101.031 58.0272 95.302 58.0272C89.5734 58.0272 88.1058 61.9567 88.1058 67.9694V68.2061C88.1058 74.1714 89.5261 78.1483 95.302 78.1483Z" fill="#F8F8FF"/>
<path d="M70.9908 64.2292H57.4505C57.3558 62.0988 56.4089 58.0272 51.3432 58.0272C45.6619 58.0272 44.0522 61.9567 44.0522 67.9694V68.2061C44.0522 74.1714 45.6619 78.1483 51.3432 78.1483C55.7935 78.1483 57.4978 75.3077 57.5925 71.6622H71.2749C71.4643 79.8527 64.41 87.9485 51.7219 87.9485C36.856 87.9485 30.6066 80.9416 30.6066 68.1114C30.6066 55.1866 37.3294 48.2271 51.7219 48.2271C63.2738 48.2271 70.47 53.9556 70.9908 64.2292Z" fill="#F8F8FF"/>
<path d="M152.589 30.2432C156.187 30.2432 158.318 28.3494 158.744 26.2189H153.82V17.555H172V39.0491H163.289L162.815 35.8297C160.401 38.4336 155.808 39.9486 151.358 39.9486C138.102 39.9486 130.716 32.9418 130.716 20.1116C130.716 7.18675 138.386 0.0378418 152.116 0.0378418C163.857 0.0378418 170.248 6.0505 171.574 14.7618H158.412C158.081 11.5897 154.578 10.1221 152.4 10.1221C146.718 10.1221 144.162 13.9569 144.162 19.9696V20.2063C144.162 26.1716 146.671 30.2432 152.589 30.2432Z" fill="#F8F8FF"/>
<path d="M106.708 0.0378418C121.101 0.0378418 127.35 7.47081 127.35 19.9222C127.35 32.3263 121.622 39.7593 106.708 39.7593C91.8425 39.7593 86.0666 32.3263 86.0666 19.9222C86.0666 7.47081 92.2686 0.0378418 106.708 0.0378418ZM106.708 29.9591C112.39 29.9591 113.952 25.9822 113.952 20.0169V19.7802C113.952 13.7675 112.437 9.838 106.708 9.838C100.98 9.838 99.5122 13.7675 99.5122 19.7802V20.0169C99.5122 25.9822 100.933 29.9591 106.708 29.9591Z" fill="#F8F8FF"/>
<path d="M50.8965 39.0968V0.795654H64.5789V29.2493H84.1792V39.0968H50.8965Z" fill="#F8F8FF"/>
</svg>
